<?xml version="1.0" encoding="UTF-8" standalone="no"?>
<svg width="16px" height="20px" viewBox="0 0 16 20" version="1.1" xmlns="http://www.w3.org/2000/svg" xmlns:xlink="http://www.w3.org/1999/xlink" xmlns:sketch="http://www.bohemiancoding.com/sketch/ns">
    <!-- Generator: Sketch 3.2.2 (9983) - http://www.bohemiancoding.com/sketch -->
    <title>back</title>
    <desc>Created with Sketch.</desc>
    <defs></defs>
    <g id="Home-Screen" stroke="none" stroke-width="1" fill="none" fill-rule="evenodd" sketch:type="MSPage">
        <g id="Create-Outline---Main" sketch:type="MSArtboardGroup" transform="translate(-1405.000000, -978.000000)" fill="#FFFFFF">
            <g id="Group-6" sketch:type="MSLayerGroup" transform="translate(78.000000, 952.000000)">
                <g id="Group" transform="translate(1061.337748, 0.000000)" sketch:type="MSShapeGroup">
                    <g id="back" transform="translate(273.620309, 36.500000) rotate(-180.000000) translate(-273.620309, -36.500000) translate(265.620309, 26.000000)">
                        <ellipse id="Oval" cx="0.980420386" cy="11" rx="0.980420386" ry="0.909090909"></ellipse>
                        <ellipse id="Oval" cx="4.24848834" cy="14.030303" rx="0.980420386" ry="0.909090909"></ellipse>
                        <ellipse id="Oval" cx="4.24848834" cy="11" rx="0.980420386" ry="0.909090909"></ellipse>
                        <ellipse id="Oval" cx="4.24848834" cy="7.96969697" rx="0.980420386" ry="0.909090909"></ellipse>
                        <ellipse id="Oval" cx="7.51655629" cy="17.0606061" rx="0.980420386" ry="0.909090909"></ellipse>
                        <ellipse id="Oval" cx="7.51655629" cy="14.030303" rx="0.980420386" ry="0.909090909"></ellipse>
                        <ellipse id="Oval" cx="7.51655629" cy="11" rx="0.980420386" ry="0.909090909"></ellipse>
                        <ellipse id="Oval" cx="7.51655629" cy="7.96969697" rx="0.980420386" ry="0.909090909"></ellipse>
                        <ellipse id="Oval" cx="7.51655629" cy="4.93939394" rx="0.980420386" ry="0.909090909"></ellipse>
                        <ellipse id="Oval" cx="10.7842974" cy="20.0909091" rx="0.980420386" ry="0.909090909"></ellipse>
                        <ellipse id="Oval" cx="10.7842974" cy="17.0606061" rx="0.980420386" ry="0.909090909"></ellipse>
                        <ellipse id="Oval" cx="10.7842974" cy="14.030303" rx="0.980420386" ry="0.909090909"></ellipse>
                        <ellipse id="Oval" cx="10.7842974" cy="7.96969697" rx="0.980420386" ry="0.909090909"></ellipse>
                        <ellipse id="Oval" cx="10.7842974" cy="4.93939394" rx="0.980420386" ry="0.909090909"></ellipse>
                        <ellipse id="Oval" cx="10.7842974" cy="1.90909091" rx="0.980420386" ry="0.909090909"></ellipse>
                        <ellipse id="Oval" cx="14.0523654" cy="17.0606061" rx="0.980420386" ry="0.909090909"></ellipse>
                        <ellipse id="Oval" cx="14.0523654" cy="4.93939394" rx="0.980420386" ry="0.909090909"></ellipse>
                    </g>
                </g>
            </g>
        </g>
    </g>
</svg>