<svg xmlns="http://www.w3.org/2000/svg" xmlns:xlink="http://www.w3.org/1999/xlink" version="1.1" id="Your_Icon" x="0px" y="0px" width="100px" height="100px" viewBox="0 0 100 100" enable-background="new 0 0 100 100" xml:space="preserve">
<path fill="#FFFFFF" d="M97.925,87.61c-1.718-2.011-2.979-3.625-3.991-6.511c-2.095-7.791,0.355-16.72,0.355-16.72l-0.014,0.009  c1.607-4.813,2.491-9.957,2.491-15.311c0-26.723-21.665-48.384-48.383-48.384C21.665,0.694,0,22.355,0,49.078  c0,20.68,12.981,38.32,31.232,45.243l-0.009,0.001c0,0,0.114,0.046,0.322,0.123c2.392,0.888,4.874,1.59,7.428,2.094  c9.888,2.23,28.944,4.76,55.475,0.314C101.04,95.723,101.165,91.405,97.925,87.61z M57.091,60.002H39.1  c-1.761,0-3.188-1.428-3.188-3.189c0-1.761,1.428-3.188,3.188-3.188h17.991c1.762,0,3.188,1.427,3.188,3.188  C60.279,58.574,58.853,60.002,57.091,60.002z M64.802,47.394H39.1c-1.761,0-3.188-1.427-3.188-3.188  c0-1.761,1.428-3.188,3.188-3.188h25.702c1.762,0,3.188,1.428,3.188,3.188C67.99,45.967,66.563,47.394,64.802,47.394z"/>
</svg>