<svg xmlns="http://www.w3.org/2000/svg" xmlns:xlink="http://www.w3.org/1999/xlink" version="1.1" id="Your_Icon" x="0px" y="0px" width="100px" height="100px" viewBox="5.0 -10.0 100.0 135.0" enable-background="new 0 0 100 100" xml:space="preserve">
<g>
	<path fill="#FFFFFF" d="M95,71.139c0,1.822-1.476,3.298-3.298,3.298h-8.254v8.246c0,1.822-1.476,3.298-3.298,3.298   c-1.814,0-3.298-1.476-3.298-3.298v-8.246h-8.246c-1.822,0-3.298-1.476-3.298-3.298c0-1.822,1.476-3.298,3.298-3.298h8.246v-8.254   c0-1.822,1.484-3.298,3.298-3.298c1.822,0,3.298,1.476,3.298,3.298v8.254h8.254C93.524,67.84,95,69.316,95,71.139z"/>
</g>
<g>
	<path fill="#FFFFFF" d="M55.848,74.434H8.298C6.477,74.434,5,72.957,5,71.136V17.317c0-1.822,1.477-3.298,3.298-3.298h22.329   c0.875,0,1.714,0.348,2.332,0.966l7.908,7.908h39.284c1.822,0,3.298,1.477,3.298,3.298v20.605c0,1.822-1.477,3.298-3.298,3.298   s-3.298-1.477-3.298-3.298V29.49H39.502c-0.875,0-1.714-0.348-2.332-0.966l-7.908-7.908H11.597v47.222h44.251   c1.822,0,3.298,1.477,3.298,3.298C59.146,72.957,57.67,74.434,55.848,74.434z"/>
</g>
</svg>