<svg xmlns="http://www.w3.org/2000/svg" xmlns:xlink="http://www.w3.org/1999/xlink" version="1.1" width="100px" height="77.4193548387px" viewBox="6.2 -9.6 124.0 129.6">
<path d="M122 95.5c-1.1 0-2-0.9-2-2v-4c0-9.972-14.728-13.688-24.004-13.688-0.62 0-1.208-0.288-1.584-0.78l-9-11.688c-0.672-0.876-0.508-2.124 0.368-2.804 0.88-0.668 2.132-0.512 2.804 0.368l8.408 10.916c11.22 0.268 27.008 5.076 27.008 17.676v4c0 1.1-0.9 2-2 2z" fill="#4a4a4a"/>
	<path d="M43.5 67.5c-11.86 0-21.524-12.884-22.428-24.272-2.668-0.752-5.072-2.952-5.072-5.728v-8c0-2.5 2.42-4.304 4-5.216v-6.784c0-7.584 6.060-13.776 13.588-13.992 1.608-0.644 7.944-3.008 14.412-3.008 10.32 0 16 6.040 16 17v6.176c4 0.78 4 3.992 4 5.824v8c0 2.784-1.264 4.86-3.304 5.648-0.764 11.82-9.576 24.352-21.196 24.352zM48 4.5c-6.488 0-13.148 2.808-13.212 2.84-0.252 0.104-0.516 0.16-0.788 0.16-5.512 0-10 4.484-10 10v8c0 0.784-0.464 1.5-1.18 1.824-1.424 0.644-2.744 1.748-2.824 2.192v7.984c0 0.88 1.68 2 3 2 1.104 0 2 0.896 2 2 0 9.908 8.536 22 18.5 22 9.716 0 17.252-11.828 17.252-22 0-1.104 0.896-2 2-2 0.832 0 1.252-0.672 1.252-2v-8c0-2 0-2-2-2-1.104 0-2-0.896-2-2v-8c0-8.748-3.924-13-12-13z" fill="#4a4a4a"/>
	<path d="M84 63.14c-5.108 0-9.516-1.032-13.512-2.148-1.068-0.296-1.684-1.4-1.388-2.464s1.408-1.692 2.46-1.388c3.728 1.040 7.804 2 12.432 2 19.548 0 27.252-9.572 29.7-13.768-1.788-3.040-6.724-11.584-7.64-15.5-1.588-6.744-6.924-22.416-22.060-22.416-3.008 0-5.872 0.68-8.516 2.020-0.996 0.492-2.188 0.088-2.688-0.884-0.5-0.984-0.104-2.188 0.88-2.688 3.22-1.624 6.684-2.448 10.328-2.448 12.664 0 22.116 9.292 25.944 25.496 0.78 3.32 5.876 12.196 7.764 15.34 0.352 0.584 0.384 1.312 0.080 1.916-5.292 10.604-17.928 16.932-33.784 16.932z" fill="#4a4a4a"/>
	<path d="M2 95.5c-1.104 0-2-0.9-2-2v-4c0-11.584 9.252-20 22-20h4.932l5.324-7.944c0.616-0.916 1.856-1.164 2.776-0.548 0.916 0.608 1.164 1.856 0.548 2.772l-5.916 8.828c-0.372 0.56-0.996 0.892-1.664 0.892h-6c-10.596 0-18 6.584-18 16v4c0 1.1-0.896 2-2 2z" fill="#4a4a4a"/>
	<path d="M86 95.5c-1.1 0-2-0.9-2-2v-4c0-9.42-7.264-16-17.672-16h-6c-0.66 0-1.276-0.324-1.648-0.868l-6.492-9.44c-0.624-0.912-0.396-2.156 0.516-2.776 0.912-0.616 2.156-0.396 2.78 0.524l5.896 8.576h4.948c12.756 0 21.672 8.232 21.672 20v4c0 1.084-0.9 1.984-2 1.984z" fill="#4a4a4a"/>
	<path d="M36 91.5c-0.12 0-0.244-0.012-0.364-0.036-0.648-0.116-1.196-0.552-1.464-1.152l-8-18c-0.356-0.804-0.148-1.752 0.516-2.324 0.668-0.584 1.632-0.644 2.372-0.184l16 10c0.516 0.324 0.856 0.864 0.924 1.468 0.072 0.592-0.14 1.212-0.572 1.632l-8 8c-0.376 0.388-0.888 0.596-1.412 0.596zM32.484 76.66l4.164 9.368 4.164-4.164-8.328-5.204z" fill="#4a4a4a"/>
	<path d="M51.996 91.5c-0.524 0-1.036-0.208-1.416-0.584l-8-8c-0.432-0.416-0.644-1.032-0.572-1.632 0.068-0.6 0.412-1.14 0.924-1.464l16-10c0.744-0.464 1.704-0.404 2.372 0.184 0.664 0.584 0.872 1.52 0.516 2.324l-8 18c-0.268 0.596-0.816 1.036-1.464 1.152-0.116 0.008-0.24 0.020-0.36 0.020zM47.188 81.864l4.164 4.164 4.164-9.368-8.328 5.204z" fill="#4a4a4a"/>
</svg>