<?xml version="1.0" encoding="UTF-8" standalone="no"?>
<svg width="70px" height="83px" viewBox="0 0 70 83" version="1.1" xmlns="http://www.w3.org/2000/svg" xmlns:xlink="http://www.w3.org/1999/xlink" xmlns:sketch="http://www.bohemiancoding.com/sketch/ns">
    <!-- Generator: Sketch 3.2.2 (9983) - http://www.bohemiancoding.com/sketch -->
    <title>resume</title>
    <desc>Created with Sketch.</desc>
    <defs></defs>
    <g id="Page-1" stroke="none" stroke-width="1" fill="none" fill-rule="evenodd" sketch:type="MSPage">
        <g id="resume" sketch:type="MSLayerGroup" fill="#C49F3C">
            <g id="Page-1" sketch:type="MSShapeGroup">
                <g id="resume">
                    <g id="Group">
                        <path d="M68.7,28.9 L68.7,28.9 L59.4,19.5 L59.4,8.9 C59.4,4.2 55.7,0.4 51.1,0.4 L9.2,0.4 C4.6,0.4 0.7,4.3 0.7,8.9 L0.7,65.5 C0.7,69.9 4.4,73.4 9.2,73.4 L10.7,73.4 L10.7,74.5 C10.7,79 14.4,82.5 19.1,82.5 L61,82.5 C65.7,82.5 69.4,79 69.4,74.5 L69.4,30.4 C69.3,29.8 69.1,29.3 68.7,28.9 L68.7,28.9 L68.7,28.9 Z M50.6,16.9 L54.9,21.2 L61.9,28.2 L54.7,28.2 C52.4,28.2 50.5,26.4 50.5,24.2 L50.6,16.9 L50.6,16.9 Z M10.7,17.9 L10.7,69.1 L9.2,69.1 C7.2,69.1 5,67.8 5,65.5 L5,8.9 C5,6.7 7,4.8 9.2,4.8 L51.1,4.8 C53.3,4.8 55,6.6 55,8.9 L55,15.1 L50.2,10.3 C49.8,9.8 49.2,9.5 48.5,9.5 L19,9.5 C14.4,9.6 10.7,13.3 10.7,17.9 L10.7,17.9 L10.7,17.9 Z M65,74.6 C65,76.7 63.2,78.3 60.9,78.3 L19,78.3 C16.7,78.3 15,76.8 15,74.6 L15,17.9 C15,15.7 16.8,13.9 19,13.9 L46.3,13.9 L46.3,24.3 C46.3,28.9 50.1,32.6 54.8,32.6 L65,32.6 L65,74.6 L65,74.6 Z" id="Shape"></path>
                        <path d="M22.4,53 L50.6,53 C51.2,53 51.7,52.5 51.7,51.9 C51.7,51.3 51.2,50.8 50.6,50.8 L22.4,50.8 C21.8,50.8 21.3,51.3 21.3,51.9 C21.3,52.5 21.8,53 22.4,53 L22.4,53 L22.4,53 Z" id="Shape"></path>
                        <path d="M58,44.3 L22.4,44.3 C21.8,44.3 21.3,44.8 21.3,45.4 C21.3,46 21.8,46.5 22.4,46.5 L58,46.5 C58.6,46.5 59.1,46 59.1,45.4 C59.1,44.8 58.6,44.3 58,44.3 L58,44.3 L58,44.3 Z" id="Shape"></path>
                        <path d="M21.3,38.5 C21.3,39.1 21.8,39.6 22.4,39.6 L58,39.6 C58.6,39.6 59.1,39.1 59.1,38.5 C59.1,37.9 58.6,37.4 58,37.4 L22.4,37.4 C21.8,37.4 21.3,37.9 21.3,38.5 L21.3,38.5 L21.3,38.5 Z" id="Shape"></path>
                        <path d="M55,68.2 L22.4,68.2 C21.8,68.2 21.3,68.7 21.3,69.3 C21.3,69.9 21.8,70.4 22.4,70.4 L55,70.4 C55.6,70.4 56.1,69.9 56.1,69.3 C56.1,68.7 55.6,68.2 55,68.2 L55,68.2 L55,68.2 Z" id="Shape"></path>
                        <path d="M58,61.7 L22.4,61.7 C21.8,61.7 21.3,62.2 21.3,62.8 C21.3,63.4 21.8,63.9 22.4,63.9 L58,63.9 C58.6,63.9 59.1,63.4 59.1,62.8 C59.1,62.2 58.6,61.7 58,61.7 L58,61.7 L58,61.7 Z" id="Shape"></path>
                        <path d="M27.2,31.8 C30.5,31.8 33.2,29.1 33.2,25.8 C33.2,22.5 30.5,19.8 27.2,19.8 C23.9,19.8 21.2,22.5 21.2,25.8 C21.2,29.1 23.9,31.8 27.2,31.8 L27.2,31.8 L27.2,31.8 Z M27.2,21.9 C29.3,21.9 31,23.6 31,25.7 C31,27.8 29.3,29.5 27.2,29.5 C25.1,29.5 23.4,27.8 23.4,25.7 C23.3,23.7 25.1,21.9 27.2,21.9 L27.2,21.9 L27.2,21.9 Z" id="Shape"></path>
                    </g>
                </g>
            </g>
        </g>
    </g>
</svg>